<svg
  xmlns="http://www.w3.org/2000/svg"
  width="26.347"
  height="14.334"
  viewBox="0 0 26.347 14.334">
  <g
    transform="translate(2)">
    <path
      d="M14.977,14.334a9.572,9.572,0,0,1-5.489-1.8l1.725-2.556a5.919,5.919,0,0,0,3.8,1.349c1.066,0,1.835-.518,1.835-1.239,0-.894-1.145-1.286-2.462-1.741-1.9-.659-4.25-1.458-4.25-4.062a3.766,3.766,0,0,1,1.615-3.105A6.106,6.106,0,0,1,15.4.016a8.6,8.6,0,0,1,4.611,1.349L18.333,3.952a4.781,4.781,0,0,0-2.65-.925c-1.161,0-1.945.47-1.945,1.176s.972,1.051,2.211,1.458c2.007.659,4.517,1.49,4.517,4.438a3.713,3.713,0,0,1-1.647,3.089,6.623,6.623,0,0,1-3.842,1.145M0,.3H3.607V14.052H0Zm7.042,4.6A2.447,2.447,0,1,1,9.488,2.447,2.45,2.45,0,0,1,7.042,4.893"
      transform="translate(-2)"/>
    <path
      d="M139.247,65.093a2.447,2.447,0,1,1,2.447-2.447,2.45,2.45,0,0,1-2.447,2.447"
      transform="translate(-117.346 -50.759)"/>
  </g>
</svg>
