<svg xmlns="http://www.w3.org/2000/svg" width="195.6" height="163.8" viewBox="0 0 195.6 163.8"><path d="M106.2-432q-9,7.2-18.3,15.6a154.264,154.264,0,0,0-17.4,18.6,104.171,104.171,0,0,0-13.2,21.3,56.088,56.088,0,0,0-5.1,23.7q0,12,3.9,19.2t5.7,10.2a92.577,92.577,0,0,1,9.9-9.6q6.3-5.4,16.5-5.4,13.2,0,22.2,8.4t9,22.8q0,12-9.6,22.5T84.6-274.2q-15.6,0-25.2-6.6a49.271,49.271,0,0,1-15-15.9,59.133,59.133,0,0,1-7.2-19.2,93.477,93.477,0,0,1-1.8-15.9,91.6,91.6,0,0,1,6.9-35.7,137.5,137.5,0,0,1,17.1-30A165.607,165.607,0,0,1,81-421.2q11.4-10.2,20.4-16.8Zm111.6,0q-9,7.2-18.3,15.6a154.265,154.265,0,0,0-17.4,18.6,104.171,104.171,0,0,0-13.2,21.3,56.087,56.087,0,0,0-5.1,23.7q0,12,3.9,19.2t5.7,10.2a92.574,92.574,0,0,1,9.9-9.6q6.3-5.4,16.5-5.4,13.2,0,22.2,8.4t9,22.8q0,12-9.6,22.5t-25.2,10.5q-15.6,0-25.2-6.6a49.27,49.27,0,0,1-15-15.9,59.133,59.133,0,0,1-7.2-19.2,93.477,93.477,0,0,1-1.8-15.9,91.6,91.6,0,0,1,6.9-35.7,137.494,137.494,0,0,1,17.1-30,165.607,165.607,0,0,1,21.6-23.7Q204-431.4,213-438Z" transform="translate(-35.4 438)" fill="#fff"/></svg>